<mxfile host="app.diagrams.net" agent="Mozilla/5.0 (Windows NT 10.0; Win64; x64) AppleWebKit/537.36 (KHTML, like Gecko) Chrome/133.0.0.0 Safari/537.36" version="26.0.7">
  <diagram name="第 1 页" id="veRPcf9bUdk8YbttKOA-">
    <mxGraphModel dx="794" dy="464" grid="1" gridSize="10" guides="1" tooltips="1" connect="1" arrows="1" fold="1" page="1" pageScale="1" pageWidth="827" pageHeight="1169" math="0" shadow="0">
      <root>
        <mxCell id="0" />
        <mxCell id="1" parent="0" />
        <mxCell id="DdCZI7sGwDG0cpfRlnXC-1" value="AI平台层" style="rounded=0;whiteSpace=wrap;html=1;align=center;horizontal=0;verticalAlign=top;" vertex="1" parent="1">
          <mxGeometry x="120" y="80" width="560" height="180" as="geometry" />
        </mxCell>
        <mxCell id="DdCZI7sGwDG0cpfRlnXC-2" value="模型层" style="rounded=0;whiteSpace=wrap;html=1;horizontal=0;verticalAlign=top;" vertex="1" parent="1">
          <mxGeometry x="160" y="170" width="510" height="80" as="geometry" />
        </mxCell>
        <mxCell id="DdCZI7sGwDG0cpfRlnXC-3" value="云原生层" style="rounded=0;whiteSpace=wrap;html=1;align=center;horizontal=0;verticalAlign=top;" vertex="1" parent="1">
          <mxGeometry x="120" y="280" width="560" height="80" as="geometry" />
        </mxCell>
        <mxCell id="DdCZI7sGwDG0cpfRlnXC-4" value="基础设施层" style="rounded=0;whiteSpace=wrap;html=1;align=center;horizontal=0;verticalAlign=top;" vertex="1" parent="1">
          <mxGeometry x="120" y="380" width="560" height="80" as="geometry" />
        </mxCell>
      </root>
    </mxGraphModel>
  </diagram>
</mxfile>
